<svg id="Layer_1" data-name="Layer 1" xmlns="http://www.w3.org/2000/svg" viewBox="0 0 348.8 135.5"><defs><style>.cls-1,.cls-5{fill:#f9a41a;}.cls-2{fill:#522c81;}.cls-3{fill:#562c82;}.cls-4{fill:none;}.cls-4,.cls-5{stroke:#f9a41a;stroke-miterlimit:10;stroke-width:1.71px;}</style></defs><title>mind-home-service-logo</title><path class="cls-1" d="M144.53,67.15s11.35-9.21,14.66-28.06c0,0,9.08-30.9-19.9-35.61a45.65,45.65,0,0,0-33.68,12C98.23,22.46,91.72,31.33,82.52,36c-2.19,1.12-6.22,4-1,4s10.9-4.76,14.89-7.8c4.93-3.76,9.39-8.08,14.39-11.76,10.44-7.69,26.39-7.84,33.9,3.84a31.54,31.54,0,0,1,4.53,10.57,48,48,0,0,1,.22,12.9s-1,10.65-5.76,16.41S142.93,68.65,144.53,67.15Z"/><path class="cls-1" d="M124.16,97.56l-2.27-30.89a76.62,76.62,0,0,1-2.75,14.55,37.31,37.31,0,0,1-4.56,10.44,16.54,16.54,0,0,1-5.22,5.18,10.76,10.76,0,0,1-5.28,1.49,3.94,3.94,0,0,1-2.42-.65,1.91,1.91,0,0,1-.85-1.56,1.79,1.79,0,0,1,.62-1.35A2.21,2.21,0,0,1,103,94.2a9.48,9.48,0,0,1,2,.3,8.15,8.15,0,0,0,2,.3,5,5,0,0,0,2.81-1,15.51,15.51,0,0,0,4.37-5.34A44.21,44.21,0,0,0,118,77.71a76.83,76.83,0,0,0,2.14-13.45q-6.51,0-10.58,3.24-3.24,2.58-3.24,5.76a6,6,0,0,0,1.53,3.38,3.16,3.16,0,0,1,.82,1.72,1.7,1.7,0,0,1-.47,1.23,1.51,1.51,0,0,1-1.13.49,2.4,2.4,0,0,1-2-1.26,6.89,6.89,0,0,1-1.17-4,10.46,10.46,0,0,1,2.19-6.27A13.61,13.61,0,0,1,112.18,64a24.67,24.67,0,0,1,9.11-1.59,15.88,15.88,0,0,0,4.5-.52q-0.09,2.58-.08,2.78a11.06,11.06,0,0,0,.08,1.18l1.66,21.84A134.63,134.63,0,0,1,141,67.76q4.7-5.54,8.19-7.49-2,5.45-4.27,14.37l-3.52,13.77q-0.29,1.15-.78,3.36l-0.69,3.07a17.46,17.46,0,0,0,4,.52,15.48,15.48,0,0,0,3.13-.34l-0.37,1.66a14,14,0,0,1-2.27.26,31.33,31.33,0,0,1-3.39-.26,25.78,25.78,0,0,0-3.21-.23,11.82,11.82,0,0,0-3.39.57,98.32,98.32,0,0,0,3.31-11.1L140,77.14a45.15,45.15,0,0,1,2.44-7.8,116.19,116.19,0,0,0-7.11,9.59q-3.86,5.63-8.63,14.24Z"/><path class="cls-2" d="M152.35,78.86l-1.26-1a22.35,22.35,0,0,1,5.23-4.49,8.59,8.59,0,0,1,4-1.33,2.15,2.15,0,0,1,1.4.4,1.34,1.34,0,0,1,.49,1.09,53.21,53.21,0,0,1-1.86,7.05q-3,10.18-3,12.27a1.1,1.1,0,0,0,.2.67,0.55,0.55,0,0,0,.43.27q0.92,0,4.7-3.56l1.12,1.09a37.31,37.31,0,0,1-5.74,4.73,6.41,6.41,0,0,1-3,1,2.07,2.07,0,0,1-1.59-.63,2.46,2.46,0,0,1-.59-1.75q0-3.58,4.3-17.52a4.11,4.11,0,0,0,.2-1.18,0.48,0.48,0,0,0-.52-0.57,2.54,2.54,0,0,0-1.31.46A29.54,29.54,0,0,0,152.35,78.86Zm11.27-19a2,2,0,0,1,1.46.59,2.07,2.07,0,0,1,.57,1.51,3.2,3.2,0,0,1-.87,2.22,2.61,2.61,0,0,1-2,1,1.9,1.9,0,0,1-1.43-.6,2.19,2.19,0,0,1-.57-1.58,3.12,3.12,0,0,1,.83-2.19A2.6,2.6,0,0,1,163.62,59.87Z"/><path class="cls-2" d="M166.37,78.94l-1-1a29.76,29.76,0,0,1,5.86-4.67A8.33,8.33,0,0,1,175,72.12a1.55,1.55,0,0,1,.95.26,0.74,0.74,0,0,1,.34.6,5.2,5.2,0,0,1-.14.92l-1.29,5.77a35.4,35.4,0,0,1,7.33-6.06A7.9,7.9,0,0,1,186,72.15a2.2,2.2,0,0,1,1.75.72,3,3,0,0,1,.63,2.07,9.08,9.08,0,0,1-.26,2q-0.46,1.86-2.4,8.12-1.83,5.85-1.83,7.77a1.79,1.79,0,0,0,.17.88,0.54,0.54,0,0,0,.49.29q0.83,0,2.61-1.61,1.26-1.15,2.52-2.12l0.72,1A26.07,26.07,0,0,1,185,96a6,6,0,0,1-3,1.14,2,2,0,0,1-1.69-.79,4.28,4.28,0,0,1-.6-2.57q0-2.55,3.18-12.7a30,30,0,0,0,1-4.22,0.87,0.87,0,0,0-1.06-.89,5.82,5.82,0,0,0-3,1.21,17.85,17.85,0,0,0-4.5,4.19,13.68,13.68,0,0,0-1.92,4.94l-2.32,10H166.8Q168,92,168.9,88.08l2.55-10.91a5.22,5.22,0,0,0,.14-0.95q0-.77-0.57-0.78a2.69,2.69,0,0,0-1.32.61A17.9,17.9,0,0,0,166.37,78.94Z"/><path class="cls-2" d="M214.61,90.38l0.8,1.09a44.49,44.49,0,0,1-5.71,4.3,9.14,9.14,0,0,1-4.07,1.46,1.6,1.6,0,0,1-1.12-.39,1.15,1.15,0,0,1-.43-0.87,6.82,6.82,0,0,1,.32-1.61l1-3.5a27.48,27.48,0,0,1-5.74,5,8.48,8.48,0,0,1-4.13,1.32A3.12,3.12,0,0,1,193,95.88,6.32,6.32,0,0,1,192,92a20.62,20.62,0,0,1,2.8-9.37A22.79,22.79,0,0,1,201,74.74a10.85,10.85,0,0,1,6.27-2.54,13.38,13.38,0,0,1,1.89.2,44.26,44.26,0,0,1,2.58-8.14,15.09,15.09,0,0,1,3.18-4.42A14,14,0,0,1,219.35,57a12.54,12.54,0,0,1,4.69-1,2.69,2.69,0,0,1,1.83.6,1.93,1.93,0,0,1,.69,1.52,1.84,1.84,0,0,1-.63,1.45,2.51,2.51,0,0,1-1.72.56,22.26,22.26,0,0,1-2.67-.29,22.35,22.35,0,0,0-2.67-.29,2.73,2.73,0,0,0-1.77.62,6,6,0,0,0-1.45,2.65q-0.46,1.29-2.08,8.23L209.5,88.32a23,23,0,0,0-.71,4.07q0,1.09.83,1.09a2.6,2.6,0,0,0,1.21-.37A39.7,39.7,0,0,0,214.61,90.38Zm-6.08-14.83a17.27,17.27,0,0,0-3.24-.52,5.89,5.89,0,0,0-3.76,1.51Q199.7,78.06,198,82.4a21.14,21.14,0,0,0-1.71,7.55,3.59,3.59,0,0,0,.79,2.4,2.31,2.31,0,0,0,1.79.93,5.05,5.05,0,0,0,2.75-1.06,12,12,0,0,0,3.5-3.85,37.4,37.4,0,0,0,2.09-7Z"/><path class="cls-1" d="M265.86,95l-0.37,1.63a20.59,20.59,0,0,1-2.24.17q-1.23,0-3.27-.2t-3.73-.2a8.73,8.73,0,0,0-2.55.4q1.16-3.3,2.69-9.17l2.21-8.61-7.76.29q-2,.11-4.19.32a49,49,0,0,1-4,11.33,15.13,15.13,0,0,1-4.72,5.41,9.35,9.35,0,0,1-5.09,1.74A7.09,7.09,0,0,1,228.75,97a2.35,2.35,0,0,1-1.23-2,1.68,1.68,0,0,1,.49-1.22,1.58,1.58,0,0,1,1.18-.5,3.14,3.14,0,0,1,2.29,1.58A5.1,5.1,0,0,0,232.63,96a1.85,1.85,0,0,0,1,.27q2.24,0,4.2-3.61t5.75-17.87l2.81-10.5q-5.74,0-8.62,1.89t-2.88,4.27a4.13,4.13,0,0,0,.77,2,3.94,3.94,0,0,1,.69,1.86,1.84,1.84,0,0,1-.53,1.36,1.81,1.81,0,0,1-1.33.53,2.1,2.1,0,0,1-1.72-1,4.62,4.62,0,0,1-.72-2.8,8.32,8.32,0,0,1,2.41-5.88,13.56,13.56,0,0,1,7-3.61,58.16,58.16,0,0,1,10.52-.6q-2.12,4.19-4.75,14.8a102,102,0,0,0,12-.54q2.48-8.32,4.37-11.6a13.07,13.07,0,0,1,4.26-4.75,9.86,9.86,0,0,1,5.29-1.46,6.69,6.69,0,0,1,3.89,1,2.71,2.71,0,0,1,1.36,2.19,1.54,1.54,0,0,1-.49,1.18,1.76,1.76,0,0,1-1.26.46,3.37,3.37,0,0,1-2.26-1.43,3.46,3.46,0,0,0-2.29-1.43q-2.15,0-4.24,4-3.72,7.11-8.62,30l1.37,0.2a16,16,0,0,0,2.63.29A14.22,14.22,0,0,0,265.86,95Z"/><path class="cls-2" d="M285.44,72.2a5.84,5.84,0,0,1,4.67,2.24A9.44,9.44,0,0,1,292,80.66a16.8,16.8,0,0,1-4.47,11.43Q283,97.15,278,97.15a6.46,6.46,0,0,1-4.95-2,7.7,7.7,0,0,1-1.88-5.48,19.5,19.5,0,0,1,3.44-11.13Q279,72.2,285.44,72.2ZM283,74.35q-2.44,0-4.72,3.48T276,87.46a10.66,10.66,0,0,0,1.41,5.88,3.15,3.15,0,0,0,2.75,1.58q2.41,0,4.39-3a17.23,17.23,0,0,0,2.52-9.61q0-4.3-1.16-6.14A3.39,3.39,0,0,0,283,74.35Z"/><path class="cls-2" d="M295.48,78.8l-0.86-1.15a23.16,23.16,0,0,1,5.4-4.19,9.51,9.51,0,0,1,4-1.35,1.37,1.37,0,0,1,.91.26,0.89,0.89,0,0,1,.3.72,10.26,10.26,0,0,1-.46,2.21q-0.66,2.41-.92,3.81,6.86-7,10.5-7a1.87,1.87,0,0,1,1.43.52,2.33,2.33,0,0,1,.49,1.63,17,17,0,0,1-.86,4.1,28.57,28.57,0,0,1,5.68-4.83,8.31,8.31,0,0,1,3.76-1.42,2.47,2.47,0,0,1,1.87.69,3,3,0,0,1,.66,2.12,8.77,8.77,0,0,1-.29,2q-0.29,1.18-2.09,7.17-2.27,7.43-2.27,8.86a0.8,0.8,0,0,0,.8,1,1.9,1.9,0,0,0,1.06-.34,27.68,27.68,0,0,0,3.47-3l0.95,1q-0.6.49-2.27,2a26.66,26.66,0,0,1-3.16,2.58,5.87,5.87,0,0,1-2.81,1,1.9,1.9,0,0,1-1.52-.85,3.71,3.71,0,0,1-.66-2.34,15.43,15.43,0,0,1,.4-3.23q0.4-1.85,2.35-8.3a32.81,32.81,0,0,0,1.46-5.88,0.82,0.82,0,0,0-.86-1,4.14,4.14,0,0,0-1.92.72A14.88,14.88,0,0,0,315.93,80a13.79,13.79,0,0,0-2,4.73q-1.92,7.08-2.87,11.56H307l4.27-17.52a18.13,18.13,0,0,0,.46-2.18,1,1,0,0,0-.23-0.7,0.86,0.86,0,0,0-.66-0.24,5,5,0,0,0-2.4,1.2,15.88,15.88,0,0,0-4.08,3.94,18.47,18.47,0,0,0-2.13,5.81L300,96.32h-4.12l3.24-13.68q1.43-5.94,1.43-6.45a0.53,0.53,0,0,0-.52-0.66Q298.92,75.53,295.48,78.8Z"/><path class="cls-2" d="M346.16,89.12l0.95,1.26q-7,6.68-12,6.68a3.71,3.71,0,0,1-3.11-1.38,7.21,7.21,0,0,1-1.08-4.42,23.19,23.19,0,0,1,3.73-12.22q4.19-6.91,10-6.91a4.36,4.36,0,0,1,3.11,1A3.67,3.67,0,0,1,348.8,76a6.26,6.26,0,0,1-1.29,3.67,15,15,0,0,1-4.62,3.76q-1.66.95-7.11,3.41a18,18,0,0,0-.26,3,4.66,4.66,0,0,0,.65,2.84,2.26,2.26,0,0,0,1.88.8,6.12,6.12,0,0,0,2.58-.66A36.35,36.35,0,0,0,346.16,89.12Zm-10-4.16a22.55,22.55,0,0,0,6.94-4.45,4.87,4.87,0,0,0,1.58-3.3,2.86,2.86,0,0,0-.64-2,2.13,2.13,0,0,0-1.68-.73,3.28,3.28,0,0,0-2.07.8A8,8,0,0,0,338,78.54,28.92,28.92,0,0,0,336.12,85Z"/><path class="cls-3" d="M107.81,126.11a6.2,6.2,0,0,0,3.42,1c1.81,0,3.47-1.07,3.47-3,0-1.16-.69-2.07-2.35-3-2-1.12-3.18-2.38-3.18-4.09,0-2.87,2.45-4.7,5.39-4.7a6,6,0,0,1,3.28.83l-0.69,1.59a5.66,5.66,0,0,0-2.78-.76,2.87,2.87,0,0,0-3.16,2.64c0,1.28.81,2,2.47,3,2,1.07,3.06,2.33,3.06,4.28,0,2.78-2.16,5-5.77,5a6.8,6.8,0,0,1-3.85-1.12Z"/><path class="cls-3" d="M154.27,121h-5.82l-1.12,5.84h6.56l-0.31,1.69h-8.53l3-16h8.17l-0.33,1.69h-6.18l-1,5.13h5.82Z"/><path class="cls-3" d="M185.68,112.81a17.61,17.61,0,0,1,3.49-.33,5.71,5.71,0,0,1,3.83,1.16,3.36,3.36,0,0,1,1.16,2.64,4.93,4.93,0,0,1-3.8,4.61V121c1.12,0.38,1.64,1.59,1.78,3.23a26.72,26.72,0,0,0,.5,4.4h-2a36.66,36.66,0,0,1-.38-3.87c-0.14-2.19-.93-3.11-2.52-3.11h-1.76l-1.31,7h-2Zm0.57,7.27H188c2.49,0,4.11-1.64,4.11-3.54,0-1.71-1.28-2.5-3.09-2.5a6.6,6.6,0,0,0-1.66.17Z"/><path class="cls-3" d="M224.71,128.58l-2-16h2l1.16,10.26c0.19,1.64.29,2.57,0.31,3.61h0c0.4-1,.9-2.19,1.76-3.85l5.11-10h2.19l-8.43,16h-2.19Z"/><path class="cls-3" d="M265.74,112.57l-3,16h-2l3-16h2Z"/><path class="cls-3" d="M303.8,128.06a10.47,10.47,0,0,1-4.16.78c-4,0-6.51-2.57-6.51-6.65a10.05,10.05,0,0,1,3.42-7.72,9.16,9.16,0,0,1,6.06-2.14,6.38,6.38,0,0,1,3.44.76l-0.62,1.59a6.52,6.52,0,0,0-3.16-.67,6.76,6.76,0,0,0-4.58,1.81,8.41,8.41,0,0,0-2.45,6.08c0,2.88,1.31,5.23,4.87,5.23a8.52,8.52,0,0,0,3.42-.67Z"/><path class="cls-3" d="M341.57,121h-5.82l-1.12,5.84h6.56l-0.31,1.69h-8.53l3-16h8.17l-0.33,1.69h-6.18l-1,5.13h5.82Z"/><path class="cls-3" d="M91.06,51.31S85,58.06,70.35,36.64c-6.19-9-13-21.72-25.25-23.29-5-.65-11.79,1.44-15.89,4.35C22,22.79,16.64,29.15,15.74,38.11A67.57,67.57,0,0,0,17.87,61.6c0.83,3.2,1.82,6.37,2.9,9.49a63.89,63.89,0,0,0,3.62,8c1.94,3.77,4.11,7.43,6.38,11,3,4.71,6.17,9.31,9.56,13.73a160.34,160.34,0,0,0,12.52,14.46c2.8,2.88,5.7,5.65,8.65,8.37,1.47,1.36,2.92,2.8,4.5,4,1.22,0.95,2.89,1.79,3.48,3.32-2.59,2.23-6.5-.53-8.86-1.81-3-1.63-5.52-4-8.22-6.08s-5.39-4.38-8-6.68c-1.5-1.32-3-2.66-4.5-4-12.6-11.07-24.5-24.89-32.15-39.89A70.56,70.56,0,0,1,.06,48.28S-2.27,16.16,21.71,3.13A27.66,27.66,0,0,1,33,.08c10.83-.8,20.41,4.07,27.56,12,9,10,13,23.54,22.33,33.19C83.48,46,90.26,52.2,91.06,51.31Z"/><line class="cls-4" x1="98.2" y1="102.81" x2="345.53" y2="102.81"/><line class="cls-5" x1="98.2" y1="105.93" x2="345.53" y2="105.93"/><path class="cls-3" d="M98.49,80.63s4.62-3,3.46-7.39l-9.58-.58-6.81-4s-3.12.46-3.81,5l-6.58,3.93v-8s-2.31-5.2-9.24-4.62l-8.78,12s-5.08-.58-1.5,2.77L48.38,87.1a3.14,3.14,0,0,1-1,0c-1.81.13-5,.81-4,3.31,0.16,0.44.51,1.15,1.09,1s-0.16-1.41.16-1.84c0.44-.6,1.94-0.39,2.61.12a0.77,0.77,0,0,1,.09,1.19c-0.17.27-.65,0.82-0.18,0.83,0.66,0,1.35-1.3,1.55-1.76,0.69-1.62,2.77-1.15,2.77-1.15l-3.12,11.55c3.15,1.75,6.61,4.2,8.43,7.39,2.31,4-3.35,4,3.23,16.74,0,0,.92.81-0.12,5.43l1.15,0.12,1.59,3.12c-0.24-.47.45-0.23,0.63-0.13,0.93,0.48,1.58,1.56,2.73,1.75,2,0.34,4.86,1.53,5.53-.25,0,0,.19-1.3.16-1.39-0.2-.76-0.16-1.43-1-1.73a12.86,12.86,0,0,0-2.85-.68c-1.45-.17-2.62-3.35-3-4.37a34.2,34.2,0,0,1-2.38-11.64,53.59,53.59,0,0,1,.23-8.48c1.55-.4,3.09-1,4.62-1.49,0-2.2-.05-4.4,0-6.59,0.61,0,1.23-.14,1.84-0.22L67.09,85.48A65.17,65.17,0,0,0,83.37,74.4a3.69,3.69,0,0,0,3.12-3.23l5.19,3Z"/><path class="cls-3" d="M68.71,62.39a23.72,23.72,0,0,0,6,3c2.89,0.81,3-3,3-3s3,0.35,1.39-2.66c-0.61-1.13-.45-2.75-0.56-4-0.23-2.47-2.9-3.6-5-3.89a4.76,4.76,0,0,0-5.63,4.07c-0.46,2.42,0,.35,0,0.35S63,57.33,68,61.84"/></svg>