<?xml version="1.0" encoding="utf-8"?>
<!-- Generator: Adobe Illustrator 24.1.2, SVG Export Plug-In . SVG Version: 6.00 Build 0)  -->
<svg version="1.1" id="Layer_1" xmlns="http://www.w3.org/2000/svg" xmlns:xlink="http://www.w3.org/1999/xlink" x="0px" y="0px"
	 viewBox="0 0 480 131" style="enable-background:new 0 0 480 131;" xml:space="preserve">
<style type="text/css">
	.st0{fill:#176B41;}
</style>
<g transform="translate(0.000000,131.000000) scale(0.100000,-0.100000)">
	<path class="st0" d="M273,1300c-64-13-124-48-175-102C-21,1073-26,873,86,741c16-19,112-90,214-157s191-132,199-145
		c41-70,30-156-27-213c-62-63-148-70-225-20c-59,39-77,87-77,218c0,94-2,107-16,102c-9-3-19-6-24-6c-21,0-75-59-96-105
		C-44,248,83,46,291,9c163-29,329,67,385,222c21,58,21,164,0,225c-29,85-74,135-198,215C222,838,216,843,193,890c-28,54-29,92-4,147
		c50,108,198,132,284,46c43-43,57-94,57-213c0-90,0-91,23-85c66,19,125,102,134,189c14,137-99,281-252,321
		C371,1311,338,1312,273,1300z"/>
	<path class="st0" d="M1322,1300c-102-21-193-96-241-199l-26-56l-3-524c-2-479-1-523,13-517c9,3,21,6,25,6c22,0,79,64,101,112
		c24,52,24,57,29,473c5,401,6,422,26,455c56,96,178,116,265,43c55-47,59-68,59-328V530h-131h-131l7-27c17-69,102-128,203-140l52-6
		V179c0-99,2-179,5-179s21,6,39,14c46,19,83,62,106,124c19,50,20,78,20,472c0,400-1,422-21,475C1662,1237,1484,1334,1322,1300z"/>
	<path class="st0" d="M2100,656c0-361,2-656,5-656c23,0,77,34,98,62c61,79,61,84,65,555c3,452-1,511-39,590c-21,44-66,85-106,98
		l-23,6V656z"/>
	<path class="st0" d="M3058,803l-3-508l-23-37c-51-81-164-109-244-60c-67,41-82,80-87,215c-3,115-4,118-25,112c-37-11-70-41-101-90
		c-40-65-43-164-5-240c83-170,301-241,473-153c48,24,119,94,143,139c40,79,44,120,44,514c0,311-3,392-15,440c-25,93-69,151-132,170
		l-22,6L3058,803z"/>
	<path class="st0" d="M3845,1296c-105-27-179-87-227-184l-33-67l-3-522c-2-288,0-523,3-523c22,0,75,33,98,60c62,73,61,67,67,530
		c5,422,5,425,28,462c58,94,178,112,263,41c57-48,59-60,59-323V530h-130c-71,0-130-3-130-7c0-24,45-92,74-111c39-27,116-52,157-52
		h29l2-178l3-177l24,3c37,4,75,37,107,94l29,53v455v455l-27,50C4163,1256,3993,1335,3845,1296z"/>
	<path class="st0" d="M4630,655c0-595,1-657,16-651c9,3,20,6,24,6c22,0,79,64,101,112l24,53v480v480l-24,53c-22,48-79,112-101,112
		c-4,0-15,3-24,6C4631,1312,4630,1250,4630,655z"/>
</g>
</svg>
